<svg xmlns="http://www.w3.org/2000/svg" xmlns:xlink="http://www.w3.org/1999/xlink" viewBox="0 0 170 170">
    <defs>
        <style>
            .cls-1{fill:none;}.cls-2{fill:#6980a2;}.cls-3{clip-path:url(#clip-path);}.cls-4{fill:#ed521a;}.cls-5{fill:#982508;}.cls-6{fill:#191009;}.cls-7{fill:#fff;}
        </style>
        <clipPath id="clip-path">
            <path class="cls-1" d="M170,85a85,85,0,1,0-85,85A85,85,0,0,0,170,85Z"/>
        </clipPath>
    </defs>
    <g id="Layer_2">
        <g id="Objects">
            <g id="avatar_animals">
                <path class="cls-2" d="M170,85a85,85,0,1,0-85,85A85,85,0,0,0,170,85Z"/>
                <g class="cls-3">
                    <path class="cls-4" d="M97.82,56.76c4-11.23,21.21-15.48,21.21-15.48s7.3,21.35-.57,31"/>
                    <path class="cls-5" d="M115.47,47.88S107.18,49.7,103,57.07,116,67.2,116,67.2s4-11.22-.55-19.32"/>
                    <path class="cls-4" d="M69.41,58.25c-4.63-11-22-14.3-22-14.3s-6.13,21.73,2.26,30.87"/>
                    <path class="cls-5" d="M51.29,50.35s8.38,1.37,12.93,8.5S51.8,69.68,51.8,69.68s-4.62-11-.51-19.33"/>
                    <path class="cls-4"
                          d="M84.27,119.4c-26,0-47.09,22.65-47.09,50.6h94.19C131.37,142.05,110.28,119.4,84.27,119.4Z"/>
                    <path class="cls-4"
                          d="M45,87.94a40.31,40.31,0,1,0,80.62,0c0-22.26-17.13-32.81-39.4-32.81S45,65.68,45,87.94Z"/>
                    <path d="M100.77,128.31c-2.07-.69-12.36,5.23-12.36,5.23a3.53,3.53,0,0,0-5.1,0S73,127.3,71,128.45,69,141.81,71,143s12.47-4.9,12.47-4.9a3.5,3.5,0,0,0,4.71,0S99,144.44,100.68,143,102.84,129,100.77,128.31Z"/>
                    <path class="cls-6" d="M87.79,147.25a2.38,2.38,0,1,0-2.37,2.37A2.37,2.37,0,0,0,87.79,147.25Z"/>
                    <path class="cls-7" d="M64.79,77.92s12.39-3.59,12.11,9c0,0-12.11,4.4-12.11-9"/>
                    <path class="cls-6" d="M74.21,82.54a3,3,0,1,1-3-3A3,3,0,0,1,74.21,82.54Z"/>
                    <path class="cls-7" d="M73.32,81.12a.71.71,0,1,1-1.41,0,.71.71,0,0,1,1.41,0Z"/>
                    <path class="cls-7" d="M107.36,77.92s-12.39-3.59-12.11,9c0,0,12.11,4.4,12.11-9"/>
                    <path class="cls-6" d="M97.94,82.54a3,3,0,1,0,3-3A3,3,0,0,0,97.94,82.54Z"/>
                    <path class="cls-7" d="M98.83,81.12a.71.71,0,1,0,1.41,0,.71.71,0,0,0-1.41,0Z"/>
                    <path class="cls-6"
                          d="M101.7,102.57a.47.47,0,0,1-.43-.28.48.48,0,0,1,.23-.63c.85-.38,20.91-9.33,28.44-6.15a.47.47,0,1,1-.37.87c-7.15-3-27.48,6.05-27.68,6.14A.49.49,0,0,1,101.7,102.57Z"/>
                    <path class="cls-6"
                          d="M106.32,106.05a.48.48,0,0,1-.47-.43.46.46,0,0,1,.42-.51c2.44-.25,23.88-2.38,26.28-1.21a.45.45,0,0,1,.22.62.46.46,0,0,1-.63.22c-1.64-.79-16.31.35-25.77,1.31Z"/>
                    <path class="cls-6"
                          d="M126.49,114.81a.44.44,0,0,1-.35-.16c-2.28-2.55-13-3.48-16.93-3.63a.47.47,0,0,1-.46-.49.48.48,0,0,1,.49-.45c.59,0,14.59.57,17.6,3.94a.47.47,0,0,1,0,.67A.47.47,0,0,1,126.49,114.81Z"/>
                    <path class="cls-6"
                          d="M69,102.57a.48.48,0,0,0,.19-.91c-.85-.38-20.91-9.33-28.44-6.15a.47.47,0,0,0-.24.62.46.46,0,0,0,.61.25c7.16-3,27.48,6.05,27.68,6.14A.49.49,0,0,0,69,102.57Z"/>
                    <path class="cls-6"
                          d="M64.36,106.05a.48.48,0,0,0,.47-.43.46.46,0,0,0-.42-.51c-2.44-.25-23.88-2.38-26.28-1.21a.47.47,0,1,0,.41.84c1.64-.79,16.31.35,25.78,1.31Z"/>
                    <path class="cls-6"
                          d="M44.19,114.81a.44.44,0,0,0,.35-.16c2.28-2.55,13-3.48,16.94-3.63a.47.47,0,0,0,.45-.49.48.48,0,0,0-.49-.45c-.59,0-14.59.57-17.6,3.94a.47.47,0,0,0,0,.67A.47.47,0,0,0,44.19,114.81Z"/>
                    <path class="cls-7"
                          d="M97.3,98.3c-5.47,0-10.11,2.92-11.89,7a13.2,13.2,0,0,0-11-5.43c-7,0-12.67,4.77-12.67,10.66s5.67,10.65,12.67,10.65c5.46,0,10.11-2.92,11.88-7a13.21,13.21,0,0,0,11,5.43c7,0,12.67-4.77,12.67-10.65S104.29,98.3,97.3,98.3Z"/>
                    <path class="cls-6"
                          d="M89.09,96c3.55,0,4.66,2.29,2.47,5.07l-1.4,1.79a4.83,4.83,0,0,1-8,0l-1.4-1.79C78.61,98.28,79.72,96,83.26,96Z"/>
                    <path class="cls-6"
                          d="M119.81,75.91c0-.41-1.51-.82-1.51-.82a33.68,33.68,0,0,1-3.76-1.2,46.72,46.72,0,0,0-7.64-2.43,42,42,0,0,0-8.57-.17,23,23,0,0,0-5.72,1.31,18.19,18.19,0,0,0-2,1.27c-.36.28-.73.57-1.06.53a4,4,0,0,1-1.06-.53H82.35a4,4,0,0,1-1.06.53c-.33,0-.69-.25-1.06-.53a18.19,18.19,0,0,0-2-1.27,23,23,0,0,0-5.72-1.31,42.1,42.1,0,0,0-8.58.17,46.92,46.92,0,0,0-7.63,2.43,33.68,33.68,0,0,1-3.76,1.2s-1.47.41-1.51.82.33,3.79.33,3.79,1.55.41,2.45.74,1.31.9,2,2.16a58.3,58.3,0,0,0,3.59,7.72c1.14,1.67,3.72,2.74,7.06,3.51,6.17.49,8.38-.9,10.38-2s3.18-3.59,3.88-4.81a45,45,0,0,0,2-6.5,1.69,1.69,0,0,0-.41-1.16,2.34,2.34,0,0,1-.35-1.47c.08-.47.33-1,1.35-1.33a10.21,10.21,0,0,1,2.19-.36,10.31,10.31,0,0,1,2.19.36c1,.35,1.27.86,1.35,1.33a2.34,2.34,0,0,1-.35,1.47,1.69,1.69,0,0,0-.41,1.16,45,45,0,0,0,2,6.5c.7,1.22,1.88,3.75,3.88,4.81s4.21,2.45,10.37,2c3.35-.77,5.92-1.84,7.07-3.51a58.3,58.3,0,0,0,3.59-7.72c.65-1.26,1.06-1.83,2-2.16s2.45-.74,2.45-.74.37-3.38.33-3.79M55.3,78.5c-.15,0-2.24-.73-2.24-.73v-.19s1.84-.63,2-.63a1.36,1.36,0,0,1,.86.7c.07.34-.48.85-.63.85m23.12,9.08c-1.5,2.2-2.76,4.31-8.94,4.59-2.45,0-5.7,0-8.09-2.24a12.8,12.8,0,0,1-2.84-5.29,20.75,20.75,0,0,1-.37-6.14,6.42,6.42,0,0,1,1.1-2.71,5.93,5.93,0,0,1,3.45-1.86,36,36,0,0,1,9.45-.55,19.19,19.19,0,0,1,4.28.9,6,6,0,0,1,3.4,4.48c.28,2.38.37,6-1.44,8.82m33.87-2.94a12.8,12.8,0,0,1-2.85,5.29c-2.38,2.21-5.63,2.24-8.08,2.24-6.19-.28-7.44-2.39-8.94-4.59-1.81-2.85-1.71-6.44-1.44-8.82a6,6,0,0,1,3.4-4.48,19.19,19.19,0,0,1,4.28-.9,36,36,0,0,1,9.45.55,5.93,5.93,0,0,1,3.45,1.86,6.57,6.57,0,0,1,1.1,2.71,20.75,20.75,0,0,1-.37,6.14m5.48-6.87s-2.08.73-2.23.73-.7-.51-.63-.85a1.36,1.36,0,0,1,.86-.7c.17,0,2,.63,2,.63Z"/>
                </g>
            </g>
        </g>
    </g>
</svg>