<svg xmlns="http://www.w3.org/2000/svg" xmlns:xlink="http://www.w3.org/1999/xlink" viewBox="0 0 170 173.98">
    <defs>
        <style>
            .cls-1{fill:none;}.cls-2{fill:#dd5877;}.cls-3{clip-path:url(#clip-path);}.cls-4{fill:#f7eada;}.cls-5{fill:#a7654f;}.cls-6{fill:#fff;}.cls-7{fill:#191009;}.cls-8{fill:#26232c;}
        </style>
        <clipPath id="clip-path">
            <path class="cls-1" d="M170,85a85,85,0,1,0-85,85A85,85,0,0,0,170,85Z"/>
        </clipPath>
    </defs>
    <g id="Layer_2">
        <g id="Objects">
            <g id="avatar_animals">
                <path class="cls-2" d="M170,85a85,85,0,1,0-85,85A85,85,0,0,0,170,85Z"/>
                <g class="cls-3">
                    <path class="cls-4"
                          d="M130.65,114c0-33.11-21.08-59.95-47.09-59.95S36.48,80.92,36.48,114,57.56,174,83.56,174,130.65,147.14,130.65,114Z"/>
                    <path class="cls-5"
                          d="M114,72.56c0-15.94-26-18.73-26-18.73h-9s-26,2.79-26,18.73-.28,35,7.55,48.93S67.34,155,83.56,156.16c16.22-1.12,15.1-20.69,22.93-34.67S114,88.5,114,72.56Z"/>
                    <path class="cls-6" d="M102.61,44.83s21.87-5,20.19-21.76c7.27,14.82-3.63,26.29-12.86,33"/>
                    <path class="cls-6" d="M64.37,44.83s-21.87-5-20.2-21.76C36.9,37.89,47.81,49.36,57,56.07"/>
                    <path class="cls-5" d="M107.3,60.87s11-13.84,28.8-10.07c-2.24,9.09-8.11,17.48-22.37,20.84"/>
                    <path class="cls-4" d="M110.11,64.28s11.4-10.1,20.54-8.16C129.5,60.79,120.32,69.17,113,70.89"/>
                    <path class="cls-5" d="M59.56,60.87S48.52,47,30.76,50.8C33,59.89,38.87,68.28,53.13,71.64"/>
                    <path class="cls-4" d="M56.74,64.28s-11.39-10.1-20.53-8.16c1.15,4.67,10.33,13.05,17.66,14.77"/>
                    <path class="cls-6"
                          d="M92,109.89c0-14,.42-27.26,12.16-38.8s8.25-20.34,1.4-26.42-16.91-5-22-5-15.1-1-22,5S51.27,59.56,63,71.09s12.17,24.82,12.17,38.8c0,10.8-7,17.06-11.33,22S62,146.38,67,146.38h33.13c5,0,7.48-9.65,3.14-14.54S92,120.69,92,109.89Z"/>
                    <path class="cls-6" d="M110.29,81.78s-12.37-3.59-12.09,9c0,0,12.09,4.39,12.09-9"/>
                    <path class="cls-7" d="M100.18,85.68a3,3,0,1,0,3-3A3,3,0,0,0,100.18,85.68Z"/>
                    <path class="cls-6" d="M101.77,85.4a.71.71,0,1,0,.71-.7A.7.7,0,0,0,101.77,85.4Z"/>
                    <path class="cls-6" d="M56.38,81.78s12.37-3.59,12.09,9c0,0-12.09,4.39-12.09-9"/>
                    <path class="cls-7" d="M66.49,85.68a3,3,0,1,1-3-3A3,3,0,0,1,66.49,85.68Z"/>
                    <path class="cls-6" d="M64.89,85.4a.7.7,0,1,1-.7-.7A.7.7,0,0,1,64.89,85.4Z"/>
                    <path class="cls-8"
                          d="M83,146.13s-5.5-2.62-10.75,0-10.09,7.21-13.1.91c0,0-.13,9.84,11.93,8.65S83.52,147.7,83,146.13Z"/>
                    <path class="cls-8"
                          d="M83.27,146.13s5.51-2.62,10.75,0,10.09,7.21,13.11.91c0,0,.13,9.84-11.93,8.65S82.75,147.7,83.27,146.13Z"/>
                </g>
            </g>
        </g>
    </g>
</svg>