<svg xmlns="http://www.w3.org/2000/svg" xmlns:xlink="http://www.w3.org/1999/xlink" viewBox="0 0 219.13 170">
    <defs>
        <style>
            .cls-1{fill:none;}.cls-2{fill:#8dd0c7;}.cls-3{clip-path:url(#clip-path);}.cls-4{fill:#d39c5b;}.cls-5{fill:#e2c59b;}.cls-6{fill:#be7447;}.cls-7{fill:#191009;}.cls-8{fill:#fff;}
        </style>
        <clipPath id="clip-path" transform="translate(20.46)">
            <path class="cls-1" d="M170,85a85,85,0,1,0-85,85A85,85,0,0,0,170,85Z"/>
        </clipPath>
    </defs>
    <g id="Layer_2">
        <g id="Objects">
            <g id="avatar_animals">
                <path class="cls-2" d="M170,85a85,85,0,1,0-85,85A85,85,0,0,0,170,85Z" transform="translate(20.46)"/>
                <g class="cls-3">
                    <path class="cls-4"
                          d="M124.19,170c.41-2.83.63-15.69.63-18.68,0-25.86-16-46.82-35.78-46.82s-35.78,21-35.78,46.82c0,3,.23,15.85.64,18.68Z"
                          transform="translate(20.46)"/>
                    <path class="cls-5"
                          d="M72.27,116.68S62.07,140.07,68.2,149s20.58,21,20.58,21,22.71-15.13,23-26.66-6.54-30.1-6.54-30.1"
                          transform="translate(20.46)"/>
                    <path class="cls-6"
                          d="M67.14,113.41c7.22,5.51,7.39,8.77,8.37,17.89C77.69,148.5,85,148,89,148V115.48S70.92,101,62.21,95.54C61.24,99.55,59.91,107.91,67.14,113.41Z"
                          transform="translate(20.46)"/>
                    <path class="cls-6"
                          d="M115.87,95.54C107.16,101,89,115.48,89,115.48V148c4,0,11.35.51,13.53-16.69,1-9.12,1.15-12.38,8.37-17.89S116.84,99.55,115.87,95.54Z"
                          transform="translate(20.46)"/>
                    <path class="cls-6" d="M109.22,70.68S122.25,59,138.16,66c-3.85,8.61-11,15.86-25,16.58"
                          transform="translate(20.46)"/>
                    <path class="cls-7" d="M110.31,74.6s13.53-8,21.71-4.36c-2,4.43-12.2,11.06-19.41,11.43"
                          transform="translate(20.46)"/>
                    <path class="cls-6" d="M68.28,69.93s-13-11.72-28.95-4.72c3.86,8.61,11,15.86,25,16.58"
                          transform="translate(20.46)"/>
                    <path class="cls-7" d="M67.19,73.85s-13.53-8-21.72-4.36c2,4.43,12.21,11.06,19.42,11.43"
                          transform="translate(20.46)"/>
                    <path class="cls-4"
                          d="M113.35,68.29,106,64.62,89,71.5l-17-6.88-7.34,3.67s.46,18.58-2.75,28C69.55,98.56,77.8,113,82.16,127.92H95.92c4.36-14.91,12.61-29.36,20.18-31.65C112.89,86.87,113.35,68.29,113.35,68.29Z"
                          transform="translate(20.46)"/>
                    <path class="cls-7"
                          d="M92.28,126c3.94,0,5.18,2.54,2.74,5.64l-1.56,2a5.37,5.37,0,0,1-8.85,0l-1.55-2c-2.44-3.1-1.21-5.64,2.74-5.64Z"
                          transform="translate(20.46)"/>
                    <path class="cls-8" d="M115,100.06s-11.92-3.46-11.65,8.67c0,0,11.65,4.23,11.65-8.67"
                          transform="translate(20.46)"/>
                    <path class="cls-7" d="M105.27,103.82a2.89,2.89,0,1,0,2.89-2.89A2.89,2.89,0,0,0,105.27,103.82Z"
                          transform="translate(20.46)"/>
                    <path class="cls-8" d="M106.81,103.55a.68.68,0,1,0,1.35,0,.68.68,0,1,0-1.35,0Z"
                          transform="translate(20.46)"/>
                    <path class="cls-8" d="M63.06,100.06S75,96.6,74.72,108.73c0,0-11.66,4.23-11.66-8.67"
                          transform="translate(20.46)"/>
                    <path class="cls-7" d="M72.81,103.82a2.9,2.9,0,1,1-2.9-2.89A2.89,2.89,0,0,1,72.81,103.82Z"
                          transform="translate(20.46)"/>
                    <path class="cls-8" d="M71.27,103.55a.68.68,0,0,1-1.36,0,.68.68,0,0,1,1.36,0Z"
                          transform="translate(20.46)"/>
                    <path d="M104,150.52c-2.06-.68-12.36,5.24-12.36,5.24a3.51,3.51,0,0,0-5.1,0s-10.31-6.25-12.27-5.1-2,13.36,0,14.56,12.46-4.9,12.46-4.9a3.52,3.52,0,0,0,4.72,0s10.78,6.33,12.46,4.9S106,151.21,104,150.52Z"
                          transform="translate(20.46)"/>
                    <path class="cls-7"
                          d="M89,136s-4.52-.57-5.88,2.65-4.82,6.67-6.94,5.46c-3-1.74-1.74-5.46,1.11-6.32-2-2-7.43,3-3.28,6.92,4.35,4.11,12.88-.23,15-4.76Z"
                          transform="translate(20.46)"/>
                    <path class="cls-7"
                          d="M89,136s4.52-.57,5.89,2.65,4.82,6.67,6.94,5.46c3-1.74,1.73-5.46-1.12-6.32,2-2,7.44,3,3.29,6.92-4.36,4.11-12.89-.23-15-4.76Z"
                          transform="translate(20.46)"/>
                    <path d="M70.47,93.48a13,13,0,1,0,13,13A13,13,0,0,0,70.47,93.48Zm0,23.85A10.83,10.83,0,1,1,81.3,106.5,10.83,10.83,0,0,1,70.47,117.33Z"
                          transform="translate(20.46)"/>
                    <rect x="73.53" y="105.2" width="6.37" height="2.6"/>
                    <rect x="73.53" y="106.5" width="2.4" height="51.94"/>
                    <path class="cls-4"
                          d="M65.4,70.4s-3.94-13.88-10.27-16-14.53-2.09-28-.74S-5.1,49.17-15.55,32.44s-1.39-10.83,1.33-6.13S1.48,44.65,12.11,46.9s21.81.73,23-3.62S21.66,19.66,15,15.72s-8.09-11.21,1-3.88S33.93,28.72,43.17,44.93c3.82,1.83,12.75,4.3,16.37,2s-.93-24-8.4-31.52S36.91,3.71,30.33,4.42,24.88-.87,33.4,1s27.42,1.4,33.17,32c1.51,8-.82,20.16-.82,20.16l6.9,12.56Z"
                          transform="translate(20.46)"/>
                    <path class="cls-4"
                          d="M112.8,70.28s3.94-13.88,10.27-16,14.53-2.09,28-.75,32.2-4.51,42.66-21.24,1.39-10.82-1.34-6.13-15.69,18.35-26.32,20.6-21.81.73-23-3.62,13.41-23.62,20-27.56,8.08-11.22-1-3.88S144.27,28.61,135,44.82c-3.81,1.83-12.75,4.29-16.36,2s.93-24,8.4-31.53S141.29,3.6,147.86,4.31,153.32-1,144.8.87s-27.42,1.4-33.18,32c-1.5,8,.82,20.17.82,20.17l-6.9,12.56Z"
                          transform="translate(20.46)"/>
                </g>
            </g>
        </g>
    </g>
</svg>