<svg xmlns="http://www.w3.org/2000/svg" xmlns:xlink="http://www.w3.org/1999/xlink" viewBox="0 0 170 170">
    <defs>
        <style>
            .cls-1{fill:none;}.cls-2{isolation:isolate;}.cls-3{fill:#0a6e90;}.cls-4{clip-path:url(#clip-path);}.cls-5{fill:#f25a28;}.cls-6{fill:#f5fefb;}.cls-7{fill:#f6f3cf;}.cls-8{fill:#251f21;}.cls-9{fill:#e96332;}.cls-10{fill:#07171b;}.cls-11{fill:#a84720;}.cls-12{fill:#191009;}.cls-13{fill:#fff;}.cls-14{mix-blend-mode:screen;opacity:0.5;}.cls-15{clip-path:url(#clip-path-2);}.cls-16{fill:#e6e6e6;}.cls-17{clip-path:url(#clip-path-3);}.cls-18{clip-path:url(#clip-path-4);}.cls-19{clip-path:url(#clip-path-5);}.cls-20{fill:#351905;}
        </style>
        <clipPath id="clip-path">
            <path class="cls-1" d="M170,85a85,85,0,1,0-85,85A85,85,0,0,0,170,85Z"/>
        </clipPath>
        <clipPath id="clip-path-2">
            <rect class="cls-1" x="57.24" y="84.34" width="11.04" height="27.81"/>
        </clipPath>
        <clipPath id="clip-path-3">
            <rect class="cls-1" x="97.06" y="82.34" width="11.4" height="29.41"/>
        </clipPath>
        <clipPath id="clip-path-4">
            <rect class="cls-1" x="52.74" y="86.07" width="9.38" height="25.46"/>
        </clipPath>
        <clipPath id="clip-path-5">
            <rect class="cls-1" x="90.75" y="82.81" width="10.91" height="26.94"/>
        </clipPath>
    </defs>
    <g class="cls-2">
        <g id="Layer_2">
            <g id="Objects">
                <g id="avatar_animals">
                    <path class="cls-3" d="M170,85a85,85,0,1,0-85,85A85,85,0,0,0,170,85Z"/>
                    <g class="cls-4">
                        <path class="cls-5"
                              d="M87.86,116.45c-21.92,0-39.69,24-39.69,53.55h79.39C127.56,140.42,109.78,116.45,87.86,116.45Z"/>
                        <path class="cls-6"
                              d="M77.28,131.75c3.15,6.58,12.7,13.91,20.71,0-.48-6-6.36-7.51-10.14-7.51C80.57,124.24,77.28,131.75,77.28,131.75Z"/>
                        <path class="cls-7"
                              d="M136.6,112.13a11.62,11.62,0,0,0-2.28-1.23l.68.41A13.23,13.23,0,0,1,136.6,112.13Z"/>
                        <path class="cls-7" d="M136.6,112.13a13.23,13.23,0,0,0-1.6-.82A18,18,0,0,0,136.6,112.13Z"/>
                        <path class="cls-7"
                              d="M41.33,110.9a12.23,12.23,0,0,0-2.28,1.23,14,14,0,0,1,1.6-.82C40.86,111.19,41.09,111.06,41.33,110.9Z"/>
                        <path class="cls-7" d="M39.05,112.13a18,18,0,0,0,1.6-.82A14,14,0,0,0,39.05,112.13Z"/>
                        <path class="cls-8" d="M102.41,67.88c7.53-30.52,32.35-41.21,32.35-41.21S152.51,73,118.59,84Z"/>
                        <path class="cls-5" d="M106,70.69c9.7-29,25.23-34,25.23-34s13.42,27.69-16.06,44.57Z"/>
                        <path class="cls-8" d="M73.21,67.88C65.68,37.36,40.85,26.67,40.85,26.67S23.11,73,57,84Z"/>
                        <path class="cls-5" d="M69.58,70.69c-9.69-29-25.23-34-25.23-34S30.94,64.33,60.42,81.21Z"/>
                        <path class="cls-6"
                              d="M98,131.75a11,11,0,0,0-4.9-5.48c1.81-2.94,7.87-10.76,21.48-15.29,10.06-3.36,18.69-1.24,22,1.15C136.58,112.13,126.43,125.08,98,131.75Z"/>
                        <path class="cls-6"
                              d="M77.62,131.75a11,11,0,0,1,4.9-5.48C80.71,123.33,74.66,115.51,61,111c-10-3.36-18.68-1.24-22,1.15C39,112.13,49.19,125.08,77.62,131.75Z"/>
                        <path class="cls-5"
                              d="M125,98.76c0-.48.08-1,.08-1.43A37.35,37.35,0,0,0,87.84,60h-.07A37.35,37.35,0,0,0,50.5,97.33c0,.48,0,1,.07,1.43-1.73,7-7.2,11-9.94,12.55C44.89,109.45,52,108.64,61,111c10.46,2.71,19.67,11.47,21.48,15.29a10.54,10.54,0,0,1,10.57,0c1.81-3.82,11-12.58,21.48-15.29,9-2.34,16.15-1.53,20.41.33C132.25,109.74,126.78,105.81,125,98.76Z"/>
                        <path class="cls-5" d="M135,111.31a18,18,0,0,0,1.6.82A13.23,13.23,0,0,0,135,111.31Z"/>
                        <path class="cls-5" d="M40.63,111.31a14,14,0,0,0-1.6.82A18,18,0,0,0,40.63,111.31Z"/>
                        <path class="cls-1"
                              d="M61.06,111a49.68,49.68,0,0,1,9.24,4.12l0-.14A36.06,36.06,0,0,0,61.06,111Z"/>
                        <path class="cls-9" d="M87.79,60Z"/>
                        <path class="cls-10" d="M82.53,126.24h0s0,0,0,0S82.53,126.25,82.53,126.24Z"/>
                        <path class="cls-11" d="M87.86,60h0Z"/>
                        <path class="cls-11" d="M87.86,92.6V60h-.07V92.61Z"/>
                        <path class="cls-11" d="M87.79,124.85h.07V92.6h-.07v32.24Z"/>
                        <path class="cls-11"
                              d="M82.53,126.24s0,0,0,0a10.9,10.9,0,0,1,5.25-1.42h0A10.88,10.88,0,0,0,82.53,126.24Z"/>
                        <path class="cls-11" d="M87.79,124.85Z"/>
                        <path class="cls-12"
                              d="M90.82,118.91c3.71,0,4.87,2.38,2.58,5.3l-1.47,1.87a5,5,0,0,1-8.32,0l-1.47-1.87c-2.29-2.92-1.13-5.3,2.58-5.3Z"/>
                        <path class="cls-12"
                              d="M76.4,131.15s6.43,2,11.23-2.88c4.22,3.36,6.9,4.35,11.51,1.65a10.86,10.86,0,0,1-11.65,3.17C83.85,134.05,77.36,133.84,76.4,131.15Z"/>
                        <path class="cls-13" d="M66.35,91.75s12.4-3.59,12.12,9c0,0-12.12,4.4-12.12-9"/>
                        <path class="cls-12" d="M76.21,95.66a3,3,0,1,1-3-3A3,3,0,0,1,76.21,95.66Z"/>
                        <path class="cls-13"
                              d="M75.2,94.52a.7.7,0,0,1-.7.71.71.71,0,0,1-.71-.71.7.7,0,0,1,.71-.7A.7.7,0,0,1,75.2,94.52Z"/>
                        <path class="cls-13" d="M108.93,91.75s-12.4-3.59-12.12,9c0,0,12.12,4.4,12.12-9"/>
                        <path class="cls-12" d="M98.8,95.66a3,3,0,1,0,3-3A3,3,0,0,0,98.8,95.66Z"/>
                        <path class="cls-13"
                              d="M99.69,94.25a.7.7,0,0,0,.7.7.7.7,0,0,0,.71-.7.71.71,0,0,0-.71-.71A.7.7,0,0,0,99.69,94.25Z"/>
                        <path d="M102.57,138.49c-2.07-.69-12.37,5.23-12.37,5.23a3.52,3.52,0,0,0-5.09,0s-10.32-6.24-12.28-5.09-2,13.36,0,14.56,12.47-4.9,12.47-4.9a3.53,3.53,0,0,0,4.71,0s10.78,6.33,12.47,4.9S104.63,139.17,102.57,138.49Z"/>
                        <g class="cls-14">
                            <g class="cls-15">
                                <polygon class="cls-16"
                                         points="57.24 85.44 65 112.01 68.28 112.15 59.9 84.34 57.24 85.44"/>
                            </g>
                        </g>
                        <g class="cls-14">
                            <g class="cls-17">
                                <polygon class="cls-16"
                                         points="97.06 82.61 105.36 111.57 108.46 111.75 100.08 82.34 97.06 82.61"/>
                            </g>
                        </g>
                        <g class="cls-14">
                            <g class="cls-18">
                                <path class="cls-16"
                                      d="M54.44,86.07h0c.06,1.21-.8,2.07-1.37,3.19a1.68,1.68,0,0,1-.33.43v1.46l5.07,18.2c1.08.5,1.17.9,2.26,1.38.67.29,1.36.54,2,.8Z"/>
                            </g>
                        </g>
                        <g class="cls-14">
                            <g class="cls-19">
                                <polygon class="cls-16"
                                         points="90.75 83.81 98.66 108.16 101.66 109.75 93.87 82.81 90.75 83.81"/>
                            </g>
                        </g>
                        <path class="cls-20"
                              d="M125.35,93.08c-.26-.33-.7-.25-.92-1.06s-2.28-6.29-4.56-7.54-6.64-3.38-17.24-4.12c-8.19-.2-13.15-.38-14.56-.43h-.42c-1.41,0-6.37.23-14.56.43-10.59.74-15,2.87-17.23,4.12S51.52,91.21,51.3,92s-.67.73-.92,1.06,0,2.28.84,3.54a23.75,23.75,0,0,0,5.67,13.16c1.83,2.14,6.91,3.17,10.44,3,7.8-1.33,9.12-3.68,12.51-7s6-12.36,6.45-13.39a1.66,1.66,0,0,1,3.15,0c.39,1,3.07,10.08,6.45,13.39s4.71,5.66,12.51,7c3.53.15,8.6-.88,10.44-3a23.76,23.76,0,0,0,5.66-13.16c.81-1.26,1.11-3.21.85-3.54M83.74,94.41c-.6,2.65-2.65,8-5,10.59s-3.89,4.89-9.83,6.18c-3.41.44-8.48.07-10.84-2.72s-4.7-7.23-4.7-11.45a36.63,36.63,0,0,1,.29-5.76s1.4-4.79,5.07-6.33a37.23,37.23,0,0,1,16-2.13c6.4.44,8.53,1.47,9,2.87s.58,6.1,0,8.75m33.92,14c-2.35,2.79-7.43,3.16-10.83,2.72-6-1.29-7.48-3.6-9.84-6.18s-4.41-7.94-5-10.59-.51-7.36,0-8.75,2.65-2.43,9.05-2.87a37.18,37.18,0,0,1,16,2.13c3.68,1.54,5.08,6.33,5.08,6.33a36.63,36.63,0,0,1,.29,5.76c0,4.22-2.35,8.65-4.71,11.45"/>
                    </g>
                </g>
            </g>
        </g>
    </g>
</svg>