<svg xmlns="http://www.w3.org/2000/svg" xmlns:xlink="http://www.w3.org/1999/xlink" viewBox="0 0 170 170">
    <defs>
        <style>
            .cls-1{fill:none;}.cls-2{fill:#f3724b;}.cls-3{clip-path:url(#clip-path);}.cls-4{fill:#fbbdb0;}.cls-5{fill:#d76c79;}.cls-6{fill:#fff;}.cls-7{fill:#191009;}.cls-8{fill:#3c3c3b;}.cls-9{fill:#26232c;}
        </style>
        <clipPath id="clip-path">
            <path class="cls-1" d="M170,85a85,85,0,1,0-85,85A85,85,0,0,0,170,85Z"/>
        </clipPath>
    </defs>
    <g id="Layer_2">
        <g id="Objects">
            <g id="avatar_animals">
                <path class="cls-2" d="M170,85a85,85,0,1,0-85,85A85,85,0,0,0,170,85Z"/>
                <g class="cls-3">
                    <path class="cls-4"
                          d="M83.43,109.24c-28.12,0-50.91,27.2-50.91,60.76H134.35C134.35,136.44,111.55,109.24,83.43,109.24Z"/>
                    <path class="cls-4" d="M9.29,51.44S37,38.88,46.16,53.16L58.38,72.23s-29.55,9.69-38.7-4.59Z"/>
                    <path class="cls-5" d="M18,55.13S35.88,47,41.79,56.24s7.89,12.31,7.89,12.31-19.08,6.25-25-3Z"/>
                    <path class="cls-4" d="M160.71,54.07s-26.89-14.23-36.9-.54L110.44,71.82s28.9,11.48,38.91-2.21Z"/>
                    <path class="cls-5"
                          d="M151.81,57.22S134.44,48,128,56.87l-8.63,11.81s18.66,7.41,25.12-1.43S151.81,57.22,151.81,57.22Z"/>
                    <path class="cls-4"
                          d="M121.68,74.86A21,21,0,0,0,122,71.3C122,55.67,104.74,43,83.43,43S44.85,55.67,44.85,71.3a21,21,0,0,0,.33,3.56A27.69,27.69,0,0,0,38,93c0,18.63,20.35,33.73,45.45,33.73s45.45-15.1,45.45-33.73A27.64,27.64,0,0,0,121.68,74.86Z"/>
                    <path class="cls-6" d="M105.47,72.1s-11.34-3.28-11.08,8.25c0,0,11.08,4,11.08-8.25"/>
                    <path class="cls-7" d="M96.21,75.68A2.75,2.75,0,1,0,99,72.93,2.75,2.75,0,0,0,96.21,75.68Z"/>
                    <path class="cls-6" d="M97.67,75.42a.65.65,0,1,0,.64-.64A.65.65,0,0,0,97.67,75.42Z"/>
                    <path class="cls-6" d="M61.39,72.1s11.35-3.28,11.09,8.25c0,0-11.09,4-11.09-8.25"/>
                    <path class="cls-7" d="M70.66,75.68a2.75,2.75,0,1,1-2.75-2.75A2.75,2.75,0,0,1,70.66,75.68Z"/>
                    <path class="cls-6" d="M69.2,75.42a.65.65,0,1,1-.65-.64A.65.65,0,0,1,69.2,75.42Z"/>
                    <path class="cls-5"
                          d="M83.43,108.53c-8.12,0-14.49-4.19-14.49-9.55s6.37-9.56,14.49-9.56S97.92,93.62,97.92,99,91.56,108.53,83.43,108.53Z"/>
                    <path class="cls-8" d="M79.92,98.39a2.73,2.73,0,1,1-2.72-2.73A2.72,2.72,0,0,1,79.92,98.39Z"/>
                    <path class="cls-8" d="M91.83,98.39a2.73,2.73,0,1,1-2.73-2.73A2.73,2.73,0,0,1,91.83,98.39Z"/>
                    <path class="cls-9"
                          d="M83.3,105s-5.21-2.49-10.18,0-9.55,6.82-12.41.86c0,0-.13,9.32,11.3,8.2S83.8,106.53,83.3,105Z"/>
                    <path class="cls-9"
                          d="M83.56,105s5.21-2.49,10.18,0,9.56,6.82,12.42.86c0,0,.12,9.32-11.3,8.2S83.06,106.53,83.56,105Z"/>
                    <path d="M98.36,123.52C96.3,122.84,86,128.76,86,128.76a3.51,3.51,0,0,0-5.1,0s-10.31-6.25-12.28-5.09-2,13.35,0,14.55,12.47-4.9,12.47-4.9a3.52,3.52,0,0,0,4.72,0s10.78,6.33,12.46,4.9S100.43,124.21,98.36,123.52Z"/>
                    <path d="M118.1,66.32a.43.43,0,0,0-.34-.42c-.15,0-.3-.08-.45-.1-2.17-.34-4.34-.67-6.53-.83-1.75-.12-3.5-.2-5.25-.27a59.83,59.83,0,0,0-10.1.34,33,33,0,0,0-6,1.27c-1,.32-2,.7-3,1a9.68,9.68,0,0,1-4.77.42A23.82,23.82,0,0,1,78.77,67a42.06,42.06,0,0,0-5.17-1.42,54,54,0,0,0-10.13-.89,59.29,59.29,0,0,0-7.35.38q-2.9.34-5.79.75a8.48,8.48,0,0,0-1.21.28.43.43,0,0,0-.36.44c0,1.14-.08,2.27-.11,3.42a4.43,4.43,0,0,0,.06.51.37.37,0,0,0,.24.31,2.18,2.18,0,0,1,.43.22,3.36,3.36,0,0,1,1.18,1.8c.18.49.29,1,.43,1.51.09.32.21.63.28.94.33,1.49.64,3,1,4.47a17.18,17.18,0,0,0,1.42,4.1A6.67,6.67,0,0,0,57.05,87a12.55,12.55,0,0,0,2.88.79,23.26,23.26,0,0,0,5.34.18A24.3,24.3,0,0,0,70.61,87a9.72,9.72,0,0,0,3.55-1.81A16.46,16.46,0,0,0,78,80.42a33.29,33.29,0,0,0,2.28-5.77c.18-.57.35-1.14.55-1.7a2.12,2.12,0,0,1,1.77-1.46,4.84,4.84,0,0,1,.85,0,2.22,2.22,0,0,1,1.73.73,3.94,3.94,0,0,1,.49.78,16.71,16.71,0,0,1,.64,1.66,34.66,34.66,0,0,0,3.09,7A11.3,11.3,0,0,0,93.77,86,14.49,14.49,0,0,0,98,87.44a28.71,28.71,0,0,0,6.74.43,16.74,16.74,0,0,0,4-.62,6.63,6.63,0,0,0,3.42-2.19,9.7,9.7,0,0,0,1.34-2.39,34.65,34.65,0,0,0,1.64-5.55c.21-.93.43-1.85.66-2.77.11-.48.26-.95.39-1.43a4,4,0,0,1,.52-1.29,2.32,2.32,0,0,1,1.05-.93.54.54,0,0,0,.35-.42,1.76,1.76,0,0,0,.07-.45c0-.69,0-1.37,0-2,0-.49-.06-1-.09-1.46M51.56,68.48c-.74,0-1.34-.15-1.34-.33s.6-.33,1.34-.33,1.33.14,1.33.33-.6.33-1.33.33m25.76,7.2a20.28,20.28,0,0,1-2.27,5.61,11.75,11.75,0,0,1-2,2.64,8.4,8.4,0,0,1-3.77,2,21.55,21.55,0,0,1-8.68.5c-.58-.09-1.14-.24-1.7-.38a4.55,4.55,0,0,1-2.72-2,10.7,10.7,0,0,1-1.5-3.59,38.18,38.18,0,0,1-.79-5.09,13.31,13.31,0,0,1,0-3,14.84,14.84,0,0,1,.21-1.49,4.14,4.14,0,0,1,3.19-3.28,27.7,27.7,0,0,1,4.78-.78c1.2-.1,2.4-.15,3.17-.19a34,34,0,0,1,7.35.73,10.5,10.5,0,0,1,2.72.86,7.68,7.68,0,0,1,1.19.79,3.06,3.06,0,0,1,1,1.94,11.91,11.91,0,0,1-.25,4.68M113,74.94a20.93,20.93,0,0,1-1.32,7,6.61,6.61,0,0,1-1.52,2.44,6.16,6.16,0,0,1-2.81,1.45,15.4,15.4,0,0,1-4,.45,27.24,27.24,0,0,1-6-.66,8.07,8.07,0,0,1-4.79-3,16.69,16.69,0,0,1-3.2-6.76,14.16,14.16,0,0,1-.46-3.49A8.73,8.73,0,0,1,89,70.83a3.28,3.28,0,0,1,2.16-2.54,19.53,19.53,0,0,1,3.61-1,32.17,32.17,0,0,1,4.14-.56c1.09-.07,2.18-.1,2.91-.13a34.4,34.4,0,0,1,7.94,1.06,8.5,8.5,0,0,1,1.32.54,1.91,1.91,0,0,1,.93.91c.22.45.45.9.63,1.36a5.58,5.58,0,0,1,.28,1.72c0,.92.08,1.84,0,2.76m2.3-6.46c-.73,0-1.33-.15-1.33-.33s.6-.33,1.33-.33,1.34.14,1.34.33-.6.33-1.34.33"/>
                </g>
            </g>
        </g>
    </g>
</svg>