<svg xmlns="http://www.w3.org/2000/svg" xmlns:xlink="http://www.w3.org/1999/xlink" viewBox="0 0 170 170">
    <defs>
        <style>
            .cls-1{fill:none;}.cls-2{fill:#6980a2;}.cls-3{clip-path:url(#clip-path);}.cls-4{fill:#fff;}.cls-5{fill:#b66916;}.cls-6{fill:#940d0a;}.cls-7{fill:#f6e9e5;}.cls-8{fill:#fbdd58;}.cls-9{fill:#191009;}.cls-10{fill:#26232c;}
        </style>
        <clipPath id="clip-path">
            <path class="cls-1" d="M170,85a85,85,0,1,0-85,85A85,85,0,0,0,170,85Z"/>
        </clipPath>
    </defs>
    <g id="Layer_2">
        <g id="Objects">
            <g id="avatar_animals">
                <path class="cls-2" d="M170,85a85,85,0,1,0-85,85A85,85,0,0,0,170,85Z"/>
                <g class="cls-3">
                    <path class="cls-4"
                          d="M135,124.33A47.75,47.75,0,0,0,130.43,114a48.2,48.2,0,0,1-5-11.87,79.48,79.48,0,0,1-2.74-17.41c0-.15,0-.3,0-.46,0-.68-.07-1.34-.1-2s0-1.29,0-1.29l-.06.09A37.43,37.43,0,0,0,85.26,46.79h0A37.42,37.42,0,0,0,48,80.93l0,0s0,.1,0,.28c-.08,1-.15,2-.15,3,0,.31,0,.61,0,.93A80.21,80.21,0,0,1,45.45,101,48.45,48.45,0,0,1,40.13,114a47.53,47.53,0,0,0-4.39,9.77c-4.5,13.55-4.51,28.79-4.51,28.79A53.64,53.64,0,0,0,34.59,170H135.93a53.81,53.81,0,0,0,3.37-17.56S139.28,137.7,135,124.33Z"/>
                    <path class="cls-5" d="M141.74,137.54v0l.11.09.1.07-.2-.14"/>
                    <path class="cls-6"
                          d="M90.09,6.08a70.34,70.34,0,0,1,3.8,13.42c.41,2,.82,3.21,1.28,5.13a39.84,39.84,0,0,1,.93,7,37.15,37.15,0,0,1-2.91,16c-2.25,5.12-5.6,9.7-10.39,12.63-.89-5.62-1.19-10-1.54-14s-.61-7.5-.75-11.36c-.09-1.94-.1-3.95-.05-6.38a30.38,30.38,0,0,1,1.26-8.46,33.57,33.57,0,0,1,8.37-14"/>
                    <path class="cls-7"
                          d="M100.63,68.19a16.7,16.7,0,0,0-15.35,9.66.05.05,0,0,0,0,0,16.7,16.7,0,0,0-15.33-9.62c-9.19,0-16.65,7.08-16.65,15.83s7.46,15.82,16.65,15.82c6.89,0,12.79,1,15.33-4.62,0,0,0,0,0,0,2.53,5.68,8.45,4.67,15.35,4.67,9.2,0,16.66-7.08,16.66-15.82S109.83,68.19,100.63,68.19Z"/>
                    <path class="cls-6" d="M78.33,97.3s-24.07,61.4-5.16,65.8S83.28,113,82.83,109.64"/>
                    <path class="cls-6" d="M92.19,97.3s24.07,61.4,5.17,65.8S87.24,113,87.69,109.64"/>
                    <path class="cls-8"
                          d="M92.65,97.46,88.39,95.4a8.11,8.11,0,0,0-6.22,0l-4.26,2.06c-1.71.82-2.25,2.55-1.2,3.84l6.66,8.18a2.37,2.37,0,0,0,3.82,0l6.66-8.18C94.9,100,94.36,98.28,92.65,97.46Z"/>
                    <path class="cls-4" d="M65,80.64s12.39-3.59,12.11,9c0,0-12.11,4.4-12.11-9"/>
                    <path class="cls-9" d="M74.41,85.25a3,3,0,1,1-3-3A3,3,0,0,1,74.41,85.25Z"/>
                    <path class="cls-4"
                          d="M73.45,83.86a.7.7,0,0,1-.71.7.7.7,0,0,1-.7-.7.7.7,0,0,1,.7-.71A.71.71,0,0,1,73.45,83.86Z"/>
                    <path class="cls-4" d="M107.61,80.64s-12.39-3.59-12.11,9c0,0,12.11,4.4,12.11-9"/>
                    <path class="cls-9" d="M97.49,85.25a3,3,0,1,0,3-3A3,3,0,0,0,97.49,85.25Z"/>
                    <path class="cls-4"
                          d="M98.57,84.36a.71.71,0,0,0,.71.71.7.7,0,0,0,.7-.71.7.7,0,0,0-.7-.7A.7.7,0,0,0,98.57,84.36Z"/>
                    <path class="cls-10"
                          d="M121.49,75.68a5.07,5.07,0,0,0-1.5-1.45c-1.53-1-3.84-1.46-7.08-1.46a77,77,0,0,0-8.82.71l-1.86.21c-7.61.84-11.81,2.51-13.63,5.4a6.63,6.63,0,0,0-1,3.08,6.54,6.54,0,0,0-4.72.22,6.55,6.55,0,0,0-1-3.3c-1.81-2.89-6-4.56-13.63-5.4l-1.85-.21a77.32,77.32,0,0,0-8.83-.71q-1,0-1.83.06c-3.46.23-5.63,1.15-6.75,2.85a5.21,5.21,0,0,0-.71,3.42,10.79,10.79,0,0,0,.89,3.16c4.4,10.15,10,15,17.62,15.45l1,0h0c5.14,0,11.28-1.81,13.09-6.9l0-.14a45.15,45.15,0,0,0,1.68-5.42,5.69,5.69,0,0,1,1.22-.69,4,4,0,0,1,3.36,0,3.89,3.89,0,0,1,.62.35,41.79,41.79,0,0,0,1.74,5.76l.05.14c1.81,5.09,7.95,6.9,13.1,6.9l1,0c7.62-.4,13.22-5.3,17.62-15.45a10.44,10.44,0,0,0,.88-3.12,5.15,5.15,0,0,0-.7-3.46M91.87,90l-.05-.15a30.51,30.51,0,0,1-1.76-6.14l0,0,0,0a5.05,5.05,0,0,1,.57-3.32c1.35-2.16,5.24-3.57,11.88-4.3l1.87-.22a75.82,75.82,0,0,1,8.54-.69c3.57,0,5.79.62,6.59,1.84.6.92.48,2.37-.37,4.32-4.06,9.35-8.86,13.67-15.56,14l-.85,0c-1.5,0-9-.25-10.85-5.31M78.65,90c-1.79,5.06-9.35,5.31-10.84,5.31l-.86,0c-6.7-.35-11.5-4.67-15.56-14-.84-2-1-3.4-.37-4.32.8-1.22,3-1.84,6.59-1.84a75.82,75.82,0,0,1,8.54.69l1.88.22c6.64.73,10.52,2.14,11.87,4.3s.2,5.61-1.19,9.53Z"/>
                </g>
            </g>
        </g>
    </g>
</svg>