<?xml version="1.0" encoding="utf-8"?>
<!-- Generator: Adobe Illustrator 23.0.3, SVG Export Plug-In . SVG Version: 6.00 Build 0)  -->
<svg version="1.1" id="Laag_1" xmlns="http://www.w3.org/2000/svg" xmlns:xlink="http://www.w3.org/1999/xlink" x="0px" y="0px"
	 viewBox="0 0 28 27" style="enable-background:new 0 0 28 27;" xml:space="preserve">
<style type="text/css">
	.st0{fill:#F19515;}
</style>
<g>
	<path class="st0" d="M19.7,5.7c-4.1,0-7.5,3.3-7.5,7.5c0,2,0.8,3.9,2.2,5.3c1.4,1.4,3.3,2.2,5.3,2.2c4.1,0,7.5-3.3,7.5-7.5
		C27.2,9.1,23.8,5.7,19.7,5.7z M15.5,17.3c-1.1-1.1-1.7-2.6-1.7-4.2s0.6-3.1,1.7-4.2c1.1-1.1,2.6-1.7,4.2-1.7c3.2,0,5.9,2.6,5.9,5.9
		c0,3.3-2.6,5.9-5.9,5.9C18.1,19.1,16.6,18.4,15.5,17.3z"/>
	<path class="st0" d="M20.8,11.5l0.4,0.5l1-1.2l-0.3-0.3c-0.4-0.5-1-0.9-1.7-1V8.5h-1.4v0.9c-1.1,0.2-1.9,1.1-1.9,2.1
		c0,1.3,1,1.8,1.9,2.1v1.7c-0.4-0.1-0.7-0.4-0.9-0.6l-0.4-0.5l-1,1.2l0.3,0.3c0.5,0.6,1.2,1,2,1.1v0.9h1.4v-0.9
		c1.4-0.3,1.9-1.3,1.9-2.2c0-1.5-1.1-2-1.9-2.2V11C20.4,11.1,20.6,11.3,20.8,11.5z M20.2,15.4v-1.2c0.3,0.2,0.4,0.3,0.4,0.6
		C20.6,14.9,20.5,15.2,20.2,15.4z M18.5,11.5c0-0.2,0.1-0.4,0.3-0.5v1C18.5,11.8,18.5,11.7,18.5,11.5z"/>
	<path class="st0" d="M19.2,21.7l-0.4,0v2.6c0,0.1-0.1,0.3-0.2,0.4c-0.1,0.1-0.2,0.2-0.4,0.2c0,0,0,0,0,0H2.8
		c-0.1,0-0.3-0.1-0.4-0.2s-0.2-0.2-0.2-0.4V2.8c0-0.3,0.2-0.5,0.6-0.5h15.4c0.3,0,0.6,0.2,0.6,0.5V5l0.4,0c0.2,0,0.5,0,0.7,0l0.4,0
		V2.6c0-1-0.8-1.8-1.8-1.8H2.6c-1,0-1.8,0.8-1.8,1.8v21.9c0,1,0.8,1.8,1.8,1.8h15.8c1,0,1.8-0.8,1.8-1.8v-2.8l-0.4,0
		C19.6,21.7,19.4,21.7,19.2,21.7z"/>
	<path class="st0" d="M4.5,12.2l6,0c0.2,0,0.4-0.1,0.5-0.3c0.1-0.2,0.2-0.3,0.2-0.5c0-0.4-0.3-0.7-0.7-0.7h-6
		c-0.4,0-0.8,0.3-0.8,0.8S4.1,12.2,4.5,12.2z"/>
	<path class="st0" d="M10.5,14.8h-6c-0.4,0-0.7,0.4-0.7,0.8c0,0.4,0.3,0.7,0.7,0.7h6c0.4,0,0.8-0.3,0.8-0.8
		C11.3,15.1,10.9,14.8,10.5,14.8z"/>
	<path class="st0" d="M3.8,19.5c0,0.4,0.3,0.8,0.8,0.8h8c0.4,0,0.8-0.3,0.8-0.8s-0.3-0.8-0.8-0.8h-8C4.1,18.8,3.8,19.1,3.8,19.5z"/>
	<path class="st0" d="M13.2,7.5c0-0.4-0.3-0.8-0.8-0.8h-8C4.1,6.7,3.8,7,3.8,7.5s0.3,0.8,0.8,0.8h8C12.9,8.2,13.2,7.9,13.2,7.5z"/>
</g>
</svg>
